# xmcd
#
# Track frame offsets:
#	150
#	23207
#	60701
#	90198
#	127329
#	149553
#	173407
#	203113
#	228723
#	247475
#
# Disc length: 3520 seconds
#
# Revision: 1
# Processed by: cddbd v1.5.2PL0 Copyright (c) Steve Scherf et al.
# Submitted via: audiograbber 1.83.01
#
DISCID=920dbe0a
DTITLE=Bernie Marsden - The Ironworks Sessions
DYEAR=2007
DGENRE=Blues
TTITLE0=Queen Of The Dancefloor
TTITLE1=Shaky Ground
TTITLE2=Can't Ever Happen To You
TTITLE3=Blues Medley
TTITLE4=Latino Pressuro Bambino
TTITLE5=Day And Night
TTITLE6=Pick It Up
TTITLE7=Funny People
TTITLE8=Working For The CSA
TTITLE9=Memphis
EXTD=
EXTT0=
EXTT1=
EXTT2=
EXTT3=
EXTT4=
EXTT5=
EXTT6=
EXTT7=
EXTT8=
EXTT9=
PLAYORDER=
